{
  "accessors": [
    {
      "bufferView": 2,
      "componentType": 5126,
      "count": 5941,
      "max": [
        0.9323931336402893,
        -0.08391312509775162,
        0.9568228125572205
      ],
      "min": [
        -1.0697736740112305,
        -2.6912593841552734,
        -0.9781911969184875
      ],
      "type": "VEC3"
    },
    {
      "bufferView": 2,
      "byteOffset": 71292,
      "componentType": 5126,
      "count": 5941,
      "max": [
        0.9995716214179993,
        0.9988968968391418,
        0.9998983144760132
      ],
      "min": [
        -0.9994810223579407,
        -0.9992750287055969,
        -0.9999733567237854
      ],
      "type": "VEC3"
    },
    {
      "bufferView": 3,
      "componentType": 5126,
      "count": 5941,
      "max": [
        0.9999544024467468,
        0.9994441866874695,
        0.9996581077575684,
        1.0
      ],
      "min": [
        -0.9999880790710449,
        -0.9739108085632324,
        -0.9999325275421143,
        1.0
      ],
      "type": "VEC4"
    },
    {
      "bufferView": 1,
      "componentType": 5126,
      "count": 5941,
      "max": [
        0.998046875,
        0.8295342922210693
      ],
      "min": [
        0.0019531247671693563,
        0.001953154569491744
      ],
      "type": "VEC2"
    },
    {
      "bufferView": 2,
      "byteOffset": 142584,
      "componentType": 5126,
      "count": 5941,
      "max": [
        0.18040430545806885,
        0.024469375610351563,
        0.24081969261169434
      ],
      "min": [
        -0.10591810941696167,
        -0.12131643295288086,
        -0.21894294023513794
      ],
      "type": "VEC3"
    },
    {
      "bufferView": 2,
      "byteOffset": 213876,
      "componentType": 5126,
      "count": 5941,
      "max": [
        0.5965862274169922,
        0.4685986042022705,
        0.4102599620819092
      ],
      "min": [
        -0.625372588634491,
        -0.6126480102539063,
        -0.3816969394683838
      ],
      "type": "VEC3"
    },
    {
      "bufferView": 2,
      "byteOffset": 285168,
      "componentType": 5126,
      "count": 5941,
      "max": [
        0.17713481187820435,
        0.016839981079101563,
        0.23210889101028442
      ],
      "min": [
        -0.16557544469833374,
        -0.20763635635375977,
        -0.14778591692447662
      ],
      "type": "VEC3"
    },
    {
      "bufferView": 2,
      "byteOffset": 356460,
      "componentType": 5126,
      "count": 5941,
      "max": [
        0.4663047194480896,
        0.43783611059188843,
        0.30546292662620544
      ],
      "min": [
        -0.35351377725601196,
        -0.23653602600097656,
        -0.25371256470680237
      ],
      "type": "VEC3"
    },
    {
      "bufferView": 0,
      "componentType": 5125,
      "count": 34482,
      "type": "SCALAR"
    },
    {
      "bufferView": 2,
      "byteOffset": 427752,
      "componentType": 5126,
      "count": 6257,
      "max": [
        0.5487085580825806,
        -0.5544189810752869,
        -0.027625756338238716
      ],
      "min": [
        -0.8208523988723755,
        -1.561678171157837,
        -0.815116822719574
      ],
      "type": "VEC3"
    },
    {
      "bufferView": 2,
      "byteOffset": 502836,
      "componentType": 5126,
      "count": 6257,
      "max": [
        0.9973741173744202,
        0.9997446537017822,
        0.9999937415122986
      ],
      "min": [
        -0.9967404007911682,
        -0.9995396137237549,
        -0.9997358322143555
      ],
      "type": "VEC3"
    },
    {
      "bufferView": 3,
      "byteOffset": 95056,
      "componentType": 5126,
      "count": 6257,
      "max": [
        0.9998125433921814,
        0.9999585747718811,
        0.999668538570404,
        1.0
      ],
      "min": [
        -0.9995980858802795,
        -0.9998824000358582,
        -0.9999726414680481,
        -1.0
      ],
      "type": "VEC4"
    },
    {
      "bufferView": 1,
      "byteOffset": 47528,
      "componentType": 5126,
      "count": 6257,
      "max": [
        0.9954699873924255,
        0.9980400204658508
      ],
      "min": [
        0.0019499999471008778,
        0.0019499999471008778
      ],
      "type": "VEC2"
    },
    {
      "bufferView": 2,
      "byteOffset": 577920,
      "componentType": 5126,
      "count": 6257,
      "max": [
        0.02628447860479355,
        1.9073486328125e-06,
        0.21219095587730408
      ],
      "min": [
        -0.01319950819015503,
        -0.07047700881958008,
        -0.008175000548362732
      ],
      "type": "VEC3"
    },
    {
      "bufferView": 2,
      "byteOffset": 653004,
      "componentType": 5126,
      "count": 6257,
      "max": [
        0.4618396759033203,
        0.502838134765625,
        0.35430708527565
      ],
      "min": [
        -0.4858103394508362,
        -0.44707536697387695,
        -0.27740007638931274
      ],
      "type": "VEC3"
    },
    {
      "bufferView": 0,
      "byteOffset": 137928,
      "componentType": 5125,
      "count": 33498,
      "type": "SCALAR"
    },
    {
      "bufferView": 2,
      "byteOffset": 728088,
      "componentType": 5126,
      "count": 1013,
      "max": [
        -0.153157040476799,
        0.28398728370666504,
        0.33057403564453125
      ],
      "min": [
        -0.6997396349906921,
        -1.0557698011398315,
        -1.066095232963562
      ],
      "type": "VEC3"
    },
    {
      "bufferView": 2,
      "byteOffset": 740244,
      "componentType": 5126,
      "count": 1013,
      "max": [
        0.9997851848602295,
        0.9994291663169861,
        0.9980035424232483
      ],
      "min": [
        -0.999096691608429,
        -0.9999515414237976,
        -0.996877908706665
      ],
      "type": "VEC3"
    },
    {
      "bufferView": 3,
      "byteOffset": 195168,
      "componentType": 5126,
      "count": 1013,
      "max": [
        0.9999566078186035,
        0.993044912815094,
        0.9904301166534424,
        1.0
      ],
      "min": [
        -0.9997321963310242,
        -0.9963763356208801,
        -0.9882620573043823,
        1.0
      ],
      "type": "VEC4"
    },
    {
      "bufferView": 1,
      "byteOffset": 97584,
      "componentType": 5126,
      "count": 1013,
      "max": [
        0.8785303831100464,
        0.9980468153953552
      ],
      "min": [
        0.0019531184807419777,
        0.0019531184807419777
      ],
      "type": "VEC2"
    },
    {
      "bufferView": 0,
      "byteOffset": 271920,
      "componentType": 5125,
      "count": 5640,
      "type": "SCALAR"
    },
    {
      "bufferView": 4,
      "componentType": 5126,
      "count": 31,
      "max": [
        1.0
      ],
      "min": [
        0.0
      ],
      "type": "SCALAR"
    },
    {
      "bufferView": 4,
      "byteOffset": 124,
      "componentType": 5126,
      "count": 62,
      "max": [
        1.0
      ],
      "min": [
        0.0
      ],
      "type": "SCALAR"
    },
    {
      "bufferView": 4,
      "byteOffset": 372,
      "componentType": 5126,
      "count": 31,
      "max": [
        1.0
      ],
      "min": [
        0.0
      ],
      "type": "SCALAR"
    },
    {
      "bufferView": 4,
      "byteOffset": 496,
      "componentType": 5126,
      "count": 31,
      "max": [
        1.0
      ],
      "min": [
        0.0
      ],
      "type": "SCALAR"
    }
  ],
  "animations": [
    {
      "channels": [
        {
          "sampler": 0,
          "target": {
            "node": 6,
            "path": "weights"
          }
        },
        {
          "sampler": 1,
          "target": {
            "node": 8,
            "path": "weights"
          }
        }
      ],
      "name": "Take 001",
      "samplers": [
        {
          "input": 21,
          "interpolation": "LINEAR",
          "output": 22
        },
        {
          "input": 23,
          "interpolation": "LINEAR",
          "output": 24
        }
      ]
    }
  ],
  "asset": {
    "extras": {
      "author": "Education Resource Fund (https://sketchfab.com/bobsmusail)",
      "license": "CC-BY-4.0 (http://creativecommons.org/licenses/by/4.0/)",
      "source": "https://sketchfab.com/3d-models/16-week-fetal-heart-3064000481d44b02b75e6f2a3a7f843d",
      "title": "16 week fetal heart"
    },
    "generator": "Sketchfab-16.33.0",
    "version": "2.0"
  },
  "bufferViews": [
    {
      "buffer": 0,
      "byteLength": 294480,
      "name": "floatBufferViews",
      "target": 34963
    },
    {
      "buffer": 0,
      "byteLength": 105688,
      "byteOffset": 294480,
      "byteStride": 8,
      "name": "floatBufferViews",
      "target": 34962
    },
    {
      "buffer": 0,
      "byteLength": 752400,
      "byteOffset": 400168,
      "byteStride": 12,
      "name": "floatBufferViews",
      "target": 34962
    },
    {
      "buffer": 0,
      "byteLength": 211376,
      "byteOffset": 1152568,
      "byteStride": 16,
      "name": "floatBufferViews",
      "target": 34962
    },
    {
      "buffer": 0,
      "byteLength": 620,
      "byteOffset": 1363944,
      "name": "floatBufferViews"
    }
  ],
  "buffers": [
    {
      "byteLength": 1364564,
      "uri": "scene.bin"
    }
  ],
  "images": [
    {
      "uri": "textures/lambert2_baseColor.jpeg"
    },
    {
      "uri": "textures/lambert2_metallicRoughness.png"
    },
    {
      "uri": "textures/lambert2_normal.jpeg"
    },
    {
      "uri": "textures/back_connection1_baseColor.jpeg"
    },
    {
      "uri": "textures/back_connection1_metallicRoughness.png"
    },
    {
      "uri": "textures/back_connection1_normal.png"
    },
    {
      "uri": "textures/Aortic_arch_M1_baseColor.png"
    },
    {
      "uri": "textures/Aortic_arch_M1_metallicRoughness.png"
    },
    {
      "uri": "textures/Aortic_arch_M1_normal.jpeg"
    }
  ],
  "materials": [
    {
      "doubleSided": true,
      "name": "lambert2",
      "normalTexture": {
        "index": 2
      },
      "pbrMetallicRoughness": {
        "baseColorTexture": {
          "index": 0
        },
        "metallicFactor": 0.0,
        "metallicRoughnessTexture": {
          "index": 1
        },
        "roughnessFactor": 0.0
      }
    },
    {
      "doubleSided": true,
      "name": "back_connection1",
      "normalTexture": {
        "index": 5
      },
      "pbrMetallicRoughness": {
        "baseColorTexture": {
          "index": 3
        },
        "metallicFactor": 0.0,
        "metallicRoughnessTexture": {
          "index": 4
        },
        "roughnessFactor": 0.0
      }
    },
    {
      "doubleSided": true,
      "name": "Aortic_arch_M1",
      "normalTexture": {
        "index": 8
      },
      "pbrMetallicRoughness": {
        "baseColorTexture": {
          "index": 6
        },
        "metallicFactor": 0.0,
        "metallicRoughnessTexture": {
          "index": 7
        },
        "roughnessFactor": 0.0
      }
    }
  ],
  "meshes": [
    {
      "name": "0",
      "primitives": [
        {
          "attributes": {
            "NORMAL": 1,
            "POSITION": 0,
            "TANGENT": 2,
            "TEXCOORD_0": 3
          },
          "indices": 8,
          "material": 0,
          "mode": 4,
          "targets": [
            {
              "NORMAL": 5,
              "POSITION": 4
            },
            {
              "NORMAL": 7,
              "POSITION": 6
            }
          ]
        }
      ],
      "weights": [
        0.0,
        0.0
      ]
    },
    {
      "name": "1",
      "primitives": [
        {
          "attributes": {
            "NORMAL": 10,
            "POSITION": 9,
            "TANGENT": 11,
            "TEXCOORD_0": 12
          },
          "indices": 15,
          "material": 1,
          "mode": 4,
          "targets": [
            {
              "NORMAL": 14,
              "POSITION": 13
            }
          ]
        }
      ],
      "weights": [
        0.0
      ]
    },
    {
      "name": "Aortic_arch_M1_Aortic_arch_M1_0",
      "primitives": [
        {
          "attributes": {
            "NORMAL": 17,
            "POSITION": 16,
            "TANGENT": 18,
            "TEXCOORD_0": 19
          },
          "indices": 20,
          "material": 2,
          "mode": 4
        }
      ]
    }
  ],
  "nodes": [
    {
      "children": [
        1
      ],
      "matrix": [
        1.0,
        0.0,
        0.0,
        0.0,
        0.0,
        3.828568672208042e-16,
        -1.0,
        0.0,
        0.0,
        1.0,
        3.828568672208042e-16,
        0.0,
        0.0,
        0.0,
        0.0,
        1.0
      ],
      "name": "Sketchfab_model"
    },
    {
      "children": [
        2
      ],
      "matrix": [
        0.009999999776482582,
        0.0,
        0.0,
        0.0,
        0.0,
        0.0,
        0.009999999776482582,
        0.0,
        0.0,
        -0.009999999776482582,
        0.0,
        0.0,
        0.0,
        0.0,
        0.0,
        1.0
      ],
      "name": "b3f624a604eb4f3ea630561890718915.fbx"
    },
    {
      "children": [
        3
      ],
      "name": "Object_2"
    },
    {
      "children": [
        4
      ],
      "name": "RootNode"
    },
    {
      "children": [
        5,
        7,
        9,
        11
      ],
      "name": "Heart_Week_Sixteen"
    },
    {
      "children": [
        6
      ],
      "name": "Heart_realistic_week16",
      "translation": [
        0.0,
        2.1028897762298584,
        0.0
      ]
    },
    {
      "mesh": 0,
      "name": "0"
    },
    {
      "children": [
        8
      ],
      "name": "back_connection_M",
      "translation": [
        0.0,
        2.1480188369750977,
        0.0
      ]
    },
    {
      "mesh": 1,
      "name": "1"
    },
    {
      "children": [
        10
      ],
      "name": "Aortic_arch_M1",
      "rotation": [
        0.0,
        0.052225466817617416,
        0.0,
        0.9986354112625122
      ],
      "translation": [
        -0.05900513753294945,
        2.148250102996826,
        -0.04648826643824577
      ]
    },
    {
      "mesh": 2,
      "name": "Aortic_arch_M1_Aortic_arch_M1_0"
    },
    {
      "name": "Targets"
    }
  ],
  "samplers": [
    {
      "magFilter": 9729,
      "minFilter": 9987,
      "wrapS": 10497,
      "wrapT": 10497
    }
  ],
  "scene": 0,
  "scenes": [
    {
      "name": "Sketchfab_Scene",
      "nodes": [
        0
      ]
    }
  ],
  "textures": [
    {
      "sampler": 0,
      "source": 0
    },
    {
      "sampler": 0,
      "source": 1
    },
    {
      "sampler": 0,
      "source": 2
    },
    {
      "sampler": 0,
      "source": 3
    },
    {
      "sampler": 0,
      "source": 4
    },
    {
      "sampler": 0,
      "source": 5
    },
    {
      "sampler": 0,
      "source": 6
    },
    {
      "sampler": 0,
      "source": 7
    },
    {
      "sampler": 0,
      "source": 8
    }
  ]
}
